PathFileType	4	(X/Y/Z)	E:\Qualisys_Data\Carbon_Farble_Plate\Data\Amateur_Runner\S14\T3\S14T3V21_c3d.trc
DataRate	CameraRate	NumFrames	NumMarkers	Units	OrigDataRate	OrigDataStartFrame	OrigNumFrames
200.000000	200.000000	5	39	mm	200.000000	285	326
Frame#	Time	LSHO			RSHO			LICST			RICST			LASIS			LHEEL			RASIS			LTROC			RTROC			SACR			LTH1			LSK4			LTH2			LTH3			RHM5			LSK2			LTH4			RTH1			LTOE			RTH2			RTH3			RTH4			LLEP			RLEP			LSK1			LSK3			RSK1			LHM5			RSK2			LFT1			RSK3			RSK4			LLME			RLME			RTOE			RHEEL			RFT1			RFT2			LFT2			
		X1	Y1	Z1	X2	Y2	Z2	X3	Y3	Z3	X4	Y4	Z4	X5	Y5	Z5	X6	Y6	Z6	X7	Y7	Z7	X8	Y8	Z8	X9	Y9	Z9	X10	Y10	Z10	X11	Y11	Z11	X12	Y12	Z12	X13	Y13	Z13	X14	Y14	Z14	X15	Y15	Z15	X16	Y16	Z16	X17	Y17	Z17	X18	Y18	Z18	X19	Y19	Z19	X20	Y20	Z20	X21	Y21	Z21	X22	Y22	Z22	X23	Y23	Z23	X24	Y24	Z24	X25	Y25	Z25	X26	Y26	Z26	X27	Y27	Z27	X28	Y28	Z28	X29	Y29	Z29	X30	Y30	Z30	X31	Y31	Z31	X32	Y32	Z32	X33	Y33	Z33	X34	Y34	Z34	X35	Y35	Z35	X36	Y36	Z36	X37	Y37	Z37	X38	Y38	Z38	X39	Y39	Z39	

286	1.425	2138.468994140625	1448.056762695312	-515.1455688476562	2095.744384765625	1445.739379882812	-218.1640625	2126.26708984375	995.7017211914062	-490.9356994628906	2136.745849609375	1010.716430664062	-212.4528961181641	2170.6630859375	947.7574462890624	-467.0789489746094	1699.877563476562	232.1346588134766	-390.11474609375	2166.7021484375	972.22216796875	-230.7926635742188	2029.542724609375	880.6859741210938	-509.1184387207031	2045.281494140625	880.4147338867188	-171.4058227539062	1992.992065429688	993.1011352539062	-360.4122009277344	2071.9287109375	647.73583984375	-510.184814453125	1846.2509765625	367.0336608886719	-465.9203491210938	1996.684204101562	656.5967407226562	-487.9203796386719	2069.744140625	549.8577880859375	-491.8355102539062	2208.88134765625	91.39248657226562	-192.5505218505859	1911.64111328125	439.02197265625	-486.0013427734375	1991.9189453125	559.057861328125	-472.8832702636719	2261.60791015625	720.7691040039062	-177.1822662353516	1855.953979492188	33.64310455322266	-402.882568359375	2191.0439453125	689.9339599609375	-169.5265960693359	2305.288818359375	632.939208984375	-202.1974792480469	2230.336669921875	597.592529296875	-187.1394500732422	2004.71240234375	485.637939453125	-488.5331726074219	2276.62255859375	545.78076171875	-188.9633636474609	1973.417602539062	383.8678283691406	-484.0252380371094	1904.175659179688	309.7922973632812	-469.0525817871094	2258.0380859375	423.0255432128906	-192.1424407958984	1797.314086914062	65.04045867919922	-466.1240844726562	2177.744140625	453.2061767578125	-192.9979705810547	1686.9970703125	207.1630554199219	-361.2952270507812	2215.107666015625	329.5272216796875	-208.2057495117188	2144.231689453125	363.6649169921875	-207.1824035644531	1757.283813476562	205.2606658935547	-446.7416381835938	2106.889404296875	191.128173828125	-229.3330993652344	2286.14990234375	83.16645050048828	-253.0197296142578	2047.265380859375	178.2140655517578	-288.2327575683594	2052.744873046875	148.0513458251953	-317.0876159667969	2035.979248046875	156.9858245849609	-265.8169555664062	1677.372924804688	209.2127990722656	-413.8732604980469
287	1.43	2158.394287109375	1451.262939453125	-513.257080078125	2112.565185546875	1448.4794921875	-217.8690185546875	2146.517822265625	998.7691040039062	-490.555419921875	2154.24755859375	1014.035583496094	-212.1994934082031	2190.67724609375	950.7559204101562	-466.4816284179688	1714.2568359375	241.0954742431641	-394.3156127929688	2186.204345703125	976.3084106445312	-229.9877624511719	2048.866455078125	883.9146728515625	-508.4751892089844	2065.01708984375	884.1656494140625	-170.7527618408203	2013.031372070312	995.8390502929688	-360.277587890625	2087.568603515625	651.4555053710938	-511.0216064453125	1858.286254882812	372.6163940429688	-467.9456176757812	2012.09619140625	661.2684326171875	-488.2841796875	2084.123291015625	553.4580078125	-493.0388488769531	2250.20166015625	90.2017822265625	-192.5771942138672	1924.574584960938	444.1145629882812	-487.8058776855469	2006.097045898438	563.4035034179688	-473.6729431152344	2280.873291015625	723.6448364257812	-177.3836822509766	1859.495239257812	32.28136825561523	-403.3515625	2210.21337890625	692.4918823242188	-170.3306274414062	2324.570068359375	635.920166015625	-202.740478515625	2249.583251953125	600.3466186523438	-188.0373992919922	2017.948120117188	490.4031982421875	-489.6488952636719	2297.22021484375	548.8733520507812	-189.5602416992188	1985.966552734375	388.9435729980469	-486.0697937011719	1916.287475585938	315.4217834472656	-471.913330078125	2282.83837890625	425.0025634765625	-192.0323638916016	1802.933715820312	67.31807708740234	-466.9401245117188	2201.0634765625	450.7469787597656	-192.7651672363281	1699.787109375	217.8733215332031	-365.0289306640625	2244.527587890625	329.1675415039062	-207.7099761962891	2171.93994140625	359.6432800292969	-207.2460327148438	1769.4375	210.4048461914062	-448.78369140625	2143.4384765625	184.7517242431641	-229.6882171630859	2328.185546875	86.52182006835938	-253.8877563476562	2084.45703125	168.6491851806641	-288.1896362304688	2091.548095703125	138.981201171875	-317.4187622070312	2074.958251953125	146.7922668457031	-268.2598571777344	1691.183715820312	219.5915374755859	-417.6094665527344
288	1.435	2177.74267578125	1454.1884765625	-511.540283203125	2129.4853515625	1450.98388671875	-217.3487854003906	2166.91650390625	1001.734069824219	-489.8871459960938	2172.817626953125	1017.501892089844	-211.4535064697266	2210.3173828125	953.1301879882812	-464.0800170898438	1729.073608398438	249.7297515869141	-398.4225769042969	2205.64404296875	979.9600830078124	-229.1309509277344	2068.22314453125	887.6854858398438	-508.3374328613281	2084.539794921875	887.5059814453125	-171.0611572265625	2032.601928710938	998.3560791015624	-360.537841796875	2103.3388671875	654.8717651367188	-511.6391906738281	1870.963500976562	377.7445983886719	-469.8217163085938	2028.489624023438	665.8567504882812	-488.5185546875	2097.7294921875	557.4083862304688	-493.8838500976562	2291.317626953125	89.5669174194336	-192.6510925292969	1938.012817382812	449.3246154785156	-489.0667114257812	2020.89599609375	568.03662109375	-474.1803283691406	2300.2734375	726.1177368164062	-177.1058807373047	1862.828491210938	30.92002296447754	-403.7043151855469	2229.5634765625	695.3162231445312	-171.0647277832031	2344.115478515625	638.7733154296875	-202.6283111572266	2269.224365234375	603.2594604492188	-188.4232025146484	2031.504638671875	494.0466003417969	-490.0632629394531	2316.617919921875	551.3759765625	-189.8652191162109	1998.626708984375	393.779052734375	-487.9799499511719	1928.55322265625	320.4889831542969	-474.7056579589844	2306.97802734375	425.7998046875	-192.2161560058594	1808.974365234375	69.40426635742188	-467.9187927246094	2224.05712890625	447.8218383789062	-192.9959259033203	1713.475952148438	227.543212890625	-368.5683898925781	2273.395263671875	328.4372863769531	-207.7763671875	2199.441650390625	355.5757751464844	-207.1441802978516	1781.781127929688	215.8064270019531	-452.3391723632812	2179.740234375	178.6823120117188	-229.7964935302734	2369.53759765625	90.72251892089844	-253.797119140625	2122.1064453125	159.8040313720703	-289.2547912597656	2130.775390625	130.6682434082031	-317.4338989257812	2113.343505859375	137.2250518798828	-267.7694702148438	1704.680908203125	229.1782684326172	-421.8575744628906
289	1.44	2197.6748046875	1457.2822265625	-510.1546325683594	2146.52001953125	1453.20556640625	-216.8658752441406	2186.9521484375	1004.348876953125	-489.3616638183594	2191.8544921875	1020.421325683594	-210.6343841552734	2230.151123046875	955.9177856445312	-463.374755859375	1745.978393554688	258.3827209472656	-403.0391845703125	2225.3037109375	983.388427734375	-228.48291015625	2087.681396484375	890.9057006835938	-508.1605529785156	2104.365234375	890.6683349609375	-170.9051055908203	2052.417236328125	1000.630187988281	-361.0132751464844	2119.162841796875	658.4544067382812	-512.5028076171875	1884.193359375	383.4299621582031	-471.509765625	2044.948120117188	670.1956176757812	-488.0914306640625	2112.41650390625	560.6513061523438	-494.2857360839844	2332.119384765625	89.10620880126953	-193.1530609130859	1951.394653320312	454.2273864746094	-490.1908569335938	2036.068481445312	572.4768676757812	-475.1387329101562	2319.30859375	727.9481201171875	-177.2801513671875	1866.088256835938	29.48802375793457	-403.7639465332031	2248.57958984375	696.7567749023438	-172.3257904052734	2363.4443359375	640.9576416015625	-203.0974426269531	2288.183837890625	605.08984375	-189.0673217773438	2045.978393554688	499.6828918457031	-492.0709533691406	2335.995849609375	553.1066284179688	-190.1846771240234	2011.868530273438	398.50927734375	-488.9674682617188	1940.997192382812	325.7674865722656	-477.3492431640625	2330.822021484375	426.8408508300781	-192.0915679931641	1815.56005859375	71.7388687133789	-469.40234375	2247.432373046875	444.7366638183594	-193.1051788330078	1727.665283203125	236.7852935791016	-372.3784790039062	2302.055419921875	327.9370422363281	-207.5787658691406	2226.882568359375	351.7270202636719	-206.9303436279297	1794.686157226562	221.3727569580078	-455.4954223632812	2216.04833984375	173.0260620117188	-229.1265258789062	2410.365966796875	95.24960327148438	-253.4233703613281	2158.170166015625	150.0925598144531	-290.0547790527344	2170.02978515625	122.5648345947266	-318.34521484375	2151.639892578125	128.5896148681641	-268.2334899902344	1719.981811523438	238.6341247558594	-425.7608337402344
290	1.445	2217.419189453125	1459.621215820312	-508.4712829589844	2162.435791015625	1455.850463867188	-217.1009368896484	2207.197265625	1006.860778808594	-488.6778259277344	2212.10107421875	1023.940002441406	-210.1380157470703	2250.27392578125	958.4857177734376	-463.0566101074219	1762.477172851562	266.0149841308594	-406.8799743652344	2244.5771484375	986.38671875	-227.8195037841797	2107.478759765625	893.7451782226562	-508.0576477050781	2123.56689453125	893.4346313476562	-171.0417785644531	2072.4423828125	1002.654296875	-360.8536071777344	2135.98583984375	661.5883178710938	-512.7435913085938	1897.733032226562	388.7150573730469	-473.6259765625	2061.52978515625	674.5635375976562	-488.6715698242188	2127.795654296875	564.5960083007812	-496.1073608398438	2372.5966796875	89.42522430419922	-193.4015808105469	1965.439819335938	459.2084045410156	-490.8721313476562	2051.346923828125	576.7637939453125	-475.5363159179688	2338.274658203125	729.690185546875	-177.6111907958984	1869.096557617188	28.0667552947998	-404.1841735839844	2267.413330078125	699.0606689453125	-173.3578338623047	2382.031005859375	642.4679565429688	-203.0782775878906	2306.73974609375	606.8689575195312	-189.6248016357422	2060.4765625	502.5215454101562	-491.8826904296875	2355.40771484375	554.7897338867188	-190.3045196533203	2025.755126953125	403.4693908691406	-490.7177429199219	1954.13671875	330.3285217285156	-479.2348327636719	2354.427490234375	427.4806823730469	-192.0177917480469	1822.1591796875	74.07713317871094	-469.5498352050781	2270.417236328125	441.7561340332031	-193.1812438964844	1742.512817382812	245.9689178466797	-376.1090087890625	2330.140380859375	327.2565612792969	-206.9019012451172	2254.279541015625	347.631103515625	-207.4776916503906	1807.984497070312	226.8374633789062	-458.6333312988281	2252.790283203125	167.1434326171875	-230.3358917236328	2450.809814453125	100.1578674316406	-253.1467132568359	2195.934814453125	142.1878509521484	-290.3172607421875	2209.33056640625	115.6795806884766	-318.8490600585938	2190.676513671875	119.9181900024414	-269.0044860839844	1735.211669921875	247.3780822753906	-429.4715881347656
